<svg xmlns="http://www.w3.org/2000/svg" viewBox="0 0 1 1">
  <rect width="1" height="1" rx="0.18" fill="#0f172a"/>
  <circle cx="0.5" cy="0.5" r="0.5" fill="#f8fafc"/>
  <g fill="none" stroke="#ef4444" stroke-width="0.016" stroke-linecap="round">
    <path d="M 0.14 0.22499999999999998 Q 0.5 0.5 0.14 0.775"/>
    <path d="M 0.86 0.22499999999999998 Q 0.5 0.5 0.86 0.775"/>
    <path d="M 0.14 0.25 l -0.028 -0.0168"/><path d="M 0.14 0.25 l -0.028 0.0168"/><path d="M 0.14 0.33333333333333337 l -0.028 -0.0168"/><path d="M 0.14 0.33333333333333337 l -0.028 0.0168"/><path d="M 0.14 0.4166666666666667 l -0.028 -0.0168"/><path d="M 0.14 0.4166666666666667 l -0.028 0.0168"/><path d="M 0.14 0.5 l -0.028 -0.0168"/><path d="M 0.14 0.5 l -0.028 0.0168"/><path d="M 0.14 0.5833333333333334 l -0.028 -0.0168"/><path d="M 0.14 0.5833333333333334 l -0.028 0.0168"/><path d="M 0.14 0.6666666666666666 l -0.028 -0.0168"/><path d="M 0.14 0.6666666666666666 l -0.028 0.0168"/><path d="M 0.14 0.75 l -0.028 -0.0168"/><path d="M 0.14 0.75 l -0.028 0.0168"/>
    <path d="M 0.86 0.25 l 0.028 -0.0168"/><path d="M 0.86 0.25 l 0.028 0.0168"/><path d="M 0.86 0.33333333333333337 l 0.028 -0.0168"/><path d="M 0.86 0.33333333333333337 l 0.028 0.0168"/><path d="M 0.86 0.4166666666666667 l 0.028 -0.0168"/><path d="M 0.86 0.4166666666666667 l 0.028 0.0168"/><path d="M 0.86 0.5 l 0.028 -0.0168"/><path d="M 0.86 0.5 l 0.028 0.0168"/><path d="M 0.86 0.5833333333333334 l 0.028 -0.0168"/><path d="M 0.86 0.5833333333333334 l 0.028 0.0168"/><path d="M 0.86 0.6666666666666666 l 0.028 -0.0168"/><path d="M 0.86 0.6666666666666666 l 0.028 0.0168"/><path d="M 0.86 0.75 l 0.028 -0.0168"/><path d="M 0.86 0.75 l 0.028 0.0168"/>
  </g>
</svg>