<svg xmlns="http://www.w3.org/2000/svg" viewBox="0 0 1 1">
  <rect width="1" height="1" rx="0.18" fill="#08090c"/>
  <circle cx="0.5" cy="0.5" r="0.31" fill="#f8fafc"/>
  <g fill="none" stroke="#ef4444" stroke-width="0.016" stroke-linecap="round">
    <path d="M 0.27680000000000005 0.3295 Q 0.5 0.5 0.27680000000000005 0.6705"/>
    <path d="M 0.7232 0.3295 Q 0.5 0.5 0.7232 0.6705"/>
    <path d="M 0.27680000000000005 0.345 l -0.028 -0.0168"/><path d="M 0.27680000000000005 0.345 l -0.028 0.0168"/><path d="M 0.27680000000000005 0.39666666666666667 l -0.028 -0.0168"/><path d="M 0.27680000000000005 0.39666666666666667 l -0.028 0.0168"/><path d="M 0.27680000000000005 0.44833333333333336 l -0.028 -0.0168"/><path d="M 0.27680000000000005 0.44833333333333336 l -0.028 0.0168"/><path d="M 0.27680000000000005 0.5 l -0.028 -0.0168"/><path d="M 0.27680000000000005 0.5 l -0.028 0.0168"/><path d="M 0.27680000000000005 0.5516666666666666 l -0.028 -0.0168"/><path d="M 0.27680000000000005 0.5516666666666666 l -0.028 0.0168"/><path d="M 0.27680000000000005 0.6033333333333333 l -0.028 -0.0168"/><path d="M 0.27680000000000005 0.6033333333333333 l -0.028 0.0168"/><path d="M 0.27680000000000005 0.655 l -0.028 -0.0168"/><path d="M 0.27680000000000005 0.655 l -0.028 0.0168"/>
    <path d="M 0.7232 0.345 l 0.028 -0.0168"/><path d="M 0.7232 0.345 l 0.028 0.0168"/><path d="M 0.7232 0.39666666666666667 l 0.028 -0.0168"/><path d="M 0.7232 0.39666666666666667 l 0.028 0.0168"/><path d="M 0.7232 0.44833333333333336 l 0.028 -0.0168"/><path d="M 0.7232 0.44833333333333336 l 0.028 0.0168"/><path d="M 0.7232 0.5 l 0.028 -0.0168"/><path d="M 0.7232 0.5 l 0.028 0.0168"/><path d="M 0.7232 0.5516666666666666 l 0.028 -0.0168"/><path d="M 0.7232 0.5516666666666666 l 0.028 0.0168"/><path d="M 0.7232 0.6033333333333333 l 0.028 -0.0168"/><path d="M 0.7232 0.6033333333333333 l 0.028 0.0168"/><path d="M 0.7232 0.655 l 0.028 -0.0168"/><path d="M 0.7232 0.655 l 0.028 0.0168"/>
  </g>
</svg>